<svg height="512pt" viewBox="0 -9 512 512" width="512pt" xmlns="http://www.w3.org/2000/svg"><path d="m108.933594 208.109375h42.058594v185.292969h-42.058594zm0 0" fill="#eab875"/><path d="m361.007812 208.109375h42.058594v185.292969h-42.058594zm0 0" fill="#eab875"/><path d="m385.917969 208.109375h17.148437v185.292969h-17.148437zm0 0" fill="#c68d4e"/><path d="m133.84375 208.109375h17.148438v185.292969h-17.148438zm0 0" fill="#c68d4e"/><path d="m361.007812 208.109375h42.058594v24.726563h-42.058594zm0 0" fill="#c68d4e"/><path d="m108.933594 208.109375h42.058594v24.726563h-42.058594zm0 0" fill="#c68d4e"/><path d="m71.765625 161.1875v21.035156c0 2.371094 1.921875 4.292969 4.292969 4.292969h10.257812c3.957032 0 7.164063 3.207031 7.164063 7.164063v12.695312c0 .957031.777343 1.734375 1.734375 1.734375h69.496094c.957031 0 1.734374-.777344 1.734374-1.734375v-12.695312c0-3.957032 3.207032-7.160157 7.160157-7.160157h10.257812c2.375 0 4.296875-1.925781 4.296875-4.296875v-21.035156c0-2.371094-1.921875-4.292969-4.296875-4.292969h-107.804687c-2.371094 0-4.292969 1.921875-4.292969 4.292969zm0 0" fill="#fed89b"/><path d="m323.839844 161.1875v21.035156c0 2.371094 1.921875 4.292969 4.292968 4.292969h10.257813c3.957031 0 7.164063 3.207031 7.164063 7.164063v12.695312c0 .957031.777343 1.734375 1.734374 1.734375h69.492188c.960938 0 1.738281-.777344 1.738281-1.734375v-12.695312c0-3.957032 3.207031-7.160157 7.160157-7.160157h10.257812c2.375 0 4.296875-1.925781 4.296875-4.296875v-21.035156c0-2.371094-1.921875-4.292969-4.296875-4.292969h-107.804688c-2.371093 0-4.292968 1.921875-4.292968 4.292969zm0 0" fill="#fed89b"/><path d="m435.941406 156.894531h-24.148437c2.371093 0 4.296875 1.921875 4.296875 4.292969v21.035156c0 2.371094-1.925782 4.292969-4.296875 4.292969h-10.257813c-3.957031 0-7.164062 3.207031-7.164062 7.164063v12.695312c0 .957031-.773438 1.734375-1.734375 1.734375h24.148437c.957032 0 1.734375-.777344 1.734375-1.734375v-12.695312c0-3.957032 3.207031-7.160157 7.160157-7.160157h10.261718c2.371094 0 4.292969-1.925781 4.292969-4.296875v-21.035156c0-2.371094-1.921875-4.292969-4.292969-4.292969zm0 0" fill="#eab875"/><path d="m183.867188 156.894531h-24.148438c2.375 0 4.296875 1.921875 4.296875 4.292969v21.035156c0 2.371094-1.921875 4.292969-4.296875 4.292969h-10.257812c-3.957032 0-7.160157 3.207031-7.160157 7.164063v12.695312c0 .957031-.777343 1.734375-1.738281 1.734375h24.148438c.957031 0 1.734374-.777344 1.734374-1.734375v-12.695312c0-3.957032 3.207032-7.160157 7.160157-7.160157h10.261719c2.371093 0 4.292968-1.925781 4.292968-4.296875v-21.035156c0-2.371094-1.921875-4.292969-4.292968-4.292969zm0 0" fill="#eab875"/><path d="m95.910156 397.117188v18.574218h68.105469v-18.574218c0-2.050782-1.664063-3.714844-3.714844-3.714844h-60.675781c-2.050781 0-3.714844 1.664062-3.714844 3.714844zm0 0" fill="#fed89b"/><path d="m347.984375 397.117188v18.574218h68.105469v-18.574218c0-2.050782-1.664063-3.714844-3.714844-3.714844h-60.675781c-2.050781 0-3.714844 1.664062-3.714844 3.714844zm0 0" fill="#fed89b"/><g fill="#eab875"><path d="m412.375 393.402344h-21.03125c2.050781 0 3.714844 1.664062 3.714844 3.714844v18.574218h21.03125v-18.574218c0-2.050782-1.664063-3.714844-3.714844-3.714844zm0 0"/><path d="m160.300781 393.402344h-21.03125c2.050781 0 3.714844 1.664062 3.714844 3.714844v18.574218h21.03125v-18.574218c0-2.050782-1.664063-3.714844-3.714844-3.714844zm0 0"/><path d="m76.71875 420.644531v14.035157c0 2.734374 2.214844 4.953124 4.953125 4.953124h96.582031c2.738282 0 4.953125-2.21875 4.953125-4.953124v-14.035157c0-2.738281-2.21875-4.953125-4.953125-4.953125h-96.582031c-2.738281 0-4.953125 2.214844-4.953125 4.953125zm0 0"/><path d="m328.789062 420.644531v14.035157c0 2.734374 2.21875 4.953124 4.953126 4.953124h96.585937c2.738281 0 4.953125-2.21875 4.953125-4.953124v-14.035157c0-2.738281-2.21875-4.953125-4.953125-4.953125h-96.585937c-2.734376 0-4.953126 2.214844-4.953126 4.953125zm0 0"/></g><path d="m430.328125 415.691406h-21.027344c2.734375 0 4.953125 2.21875 4.953125 4.953125v14.035157c0 2.734374-2.21875 4.953124-4.953125 4.953124h21.027344c2.734375 0 4.953125-2.21875 4.953125-4.953124v-14.035157c0-2.738281-2.214844-4.953125-4.953125-4.953125zm0 0" fill="#c68d4e"/><path d="m178.253906 415.691406h-21.027344c2.734376 0 4.953126 2.21875 4.953126 4.953125v14.035157c0 2.734374-2.21875 4.953124-4.953126 4.953124h21.027344c2.734375 0 4.953125-2.21875 4.953125-4.953124v-14.035157c0-2.738281-2.21875-4.953125-4.953125-4.953125zm0 0" fill="#c68d4e"/><path d="m80.253906 492.511719 9.589844-52.878907h80.238281l9.589844 52.878907c.230469 1.265625-.742187 2.429687-2.027344 2.429687h-95.363281c-1.285156 0-2.257812-1.164062-2.027344-2.429687zm0 0" fill="#fed89b"/><path d="m332.328125 492.511719 9.589844-52.878907h80.238281l9.589844 52.878907c.230468 1.265625-.742188 2.429687-2.027344 2.429687h-95.363281c-1.285157 0-2.257813-1.164062-2.027344-2.429687zm0 0" fill="#fed89b"/><path d="m431.746094 492.511719-9.589844-52.878907h-22.480469l9.589844 52.878907c.226563 1.265625-.742187 2.429687-2.027344 2.429687h22.480469c1.285156 0 2.257812-1.164062 2.027344-2.429687zm0 0" fill="#eab875"/><path d="m179.671875 492.511719-9.589844-52.878907h-22.480469l9.589844 52.878907c.230469 1.265625-.742187 2.429687-2.027344 2.429687h22.480469c1.285157 0 2.257813-1.164062 2.027344-2.429687zm0 0" fill="#eab875"/><path d="m384 75.871094c-24.835938-45.183594-72.902344-75.871094-128-75.871094s-103.164062 30.6875-128 75.871094c-24.839844-45.183594-72.902344-75.871094-128-75.871094v35.910156c60.777344 0 110.046875 49.269532 110.046875 110.042969v10.941406h35.90625v-10.941406c0-60.773437 49.269531-110.042969 110.046875-110.042969s110.046875 49.269532 110.046875 110.042969v10.941406h35.90625v-10.941406c0-60.773437 49.269531-110.042969 110.046875-110.042969v-35.910156c-55.097656 0-103.164062 30.6875-128 75.871094zm0 0" fill="#eab875"/></svg>