<?xml version="1.0"?>
<svg xmlns="http://www.w3.org/2000/svg" width="512" height="512" viewBox="0 0 128 128"><path d="M126.25,32.249A1.75,1.75,0,0,0,128,30.5V15.219a1.75,1.75,0,0,0-1.75-1.75h-8.563V6.752A6.757,6.757,0,0,0,110.937,0H17.062a6.758,6.758,0,0,0-6.75,6.75v6.717H1.75A1.75,1.75,0,0,0,0,15.219V30.5a1.75,1.75,0,0,0,1.75,1.75h8.562v8.564H7.917a3.755,3.755,0,0,0-3.75,3.75v4.25a3.755,3.755,0,0,0,3.75,3.75h2.395V112.5H7.75A7.759,7.759,0,0,0,0,120.25v6A1.75,1.75,0,0,0,1.75,128H36.312a1.749,1.749,0,0,0,1.75-1.75v-6a7.759,7.759,0,0,0-7.75-7.75H27.75V52.563h2.395a3.755,3.755,0,0,0,3.75-3.75v-4.25a3.754,3.754,0,0,0-3.75-3.75H27.75V32.249h72.5v8.564H97.855a3.754,3.754,0,0,0-3.75,3.75v4.25a3.755,3.755,0,0,0,3.75,3.75h2.395V112.5H97.687a7.759,7.759,0,0,0-7.75,7.75v6a1.75,1.75,0,0,0,1.75,1.75H126.25a1.75,1.75,0,0,0,1.75-1.75v-6a7.759,7.759,0,0,0-7.75-7.75h-2.563V52.563h2.395a3.755,3.755,0,0,0,3.75-3.75v-4.25a3.754,3.754,0,0,0-3.75-3.75h-2.395V32.249ZM13.812,6.752a3.254,3.254,0,0,1,3.25-3.25h93.875a3.254,3.254,0,0,1,3.25,3.25v6.717H13.812ZM3.5,16.969h121v11.78H3.5ZM34.562,120.25V124.5H3.5V120.25A4.255,4.255,0,0,1,7.75,116H30.312A4.254,4.254,0,0,1,34.562,120.25ZM24.25,112.5H13.812V52.563H24.25ZM30.4,44.563v4.25a.251.251,0,0,1-.25.25H7.917a.251.251,0,0,1-.25-.25v-4.25a.251.251,0,0,1,.25-.25H30.145A.25.25,0,0,1,30.4,44.563Zm-6.145-3.75H13.812V32.249H24.25ZM124.5,120.25V124.5H93.437V120.25a4.255,4.255,0,0,1,4.25-4.25H120.25A4.255,4.255,0,0,1,124.5,120.25Zm-10.313-7.75H103.75V52.563h10.437Zm6.145-67.937v4.25a.251.251,0,0,1-.25.25H97.855a.251.251,0,0,1-.25-.25v-4.25a.25.25,0,0,1,.25-.25h22.227A.25.25,0,0,1,120.332,44.563Zm-6.145-3.75H103.75V32.249h10.437Z"/></svg>
