<?xml version="1.0" encoding="iso-8859-1"?>
<!-- Generator: Adobe Illustrator 19.0.0, SVG Export Plug-In . SVG Version: 6.00 Build 0)  -->
<svg 
	version="1.1" 
	id="Layer_1" 
	xmlns="http://www.w3.org/2000/svg" 
	xmlns:xlink="http://www.w3.org/1999/xlink" 
	x="0px" 
	y="0px"
	viewBox="0 0 512 512" 
	style="enable-background:new 0 0 512 512;" 
	xml:space="preserve">
<g>
	<g>
		<path d="M433.999,276.482c5.522,0,10-4.477,10-10V223H446c5.523,0,10-4.477,10-10v-30c0-5.523-4.478-10-10-10h-7.277
			C433.513,76.726,353.551,0,256,0S78.487,76.726,73.277,173H66c-5.522,0-10,4.477-10,10v30c0,5.523,4.478,10,10,10h2.001v123.269
			c0,5.523,4.478,10,10,10c5.522,0,10-4.477,10-10V223H128v228.667H88.001v-43.482c0-5.523-4.478-10-10-10c-5.522,0-10,4.477-10,10
			v43.482H66c-5.522,0-10,4.477-10,10V502c0,5.523,4.478,10,10,10h84c5.522,0,10-4.477,10-10v-40.333c0-5.523-4.478-10-10-10h-2V223
			h2c5.522,0,10-4.477,10-10v-30c0-5.523-4.478-10-10-10h-6.552C148.527,115.358,197.062,70,256,70s107.473,45.358,112.552,103H362
			c-5.522,0-10,4.477-10,10v30c0,5.523,4.478,10,10,10h2v228.667h-2c-5.522,0-10,4.477-10,10V502c0,5.523,4.478,10,10,10h84
			c5.522,0,10-4.477,10-10v-40.333c0-5.523-4.478-10-10-10h-2.001v-123.27c0-5.523-4.478-10-10-10c-5.522,0-10,4.477-10,10v123.27
			H384V223h39.999v43.482C423.999,272.005,428.477,276.482,433.999,276.482z M140,492H76v-20.333h2.001H138h2V492z M140,203H76v-10
			h64V203z M256,50c-69.975,0-127.501,54.313-132.628,123H93.303C98.487,87.76,169.479,20,256,20s157.514,67.76,162.697,153h-30.069
			C383.501,104.313,325.975,50,256,50z M433.999,471.667H436V492h-64v-20.333h2H433.999z M372,203v-10h64v10H372z"/>
	</g>
</g>
<g>
	<g>
		<path d="M434,287.858c-5.522,0-10,4.477-10,10v0.127c0,5.523,4.478,10,10,10c5.522,0,10-4.477,10-10v-0.127
			C444,292.335,439.523,287.858,434,287.858z"/>
	</g>
</g>
<g>
	<g>
		<path d="M78,366.681c-5.522,0-10,4.477-10,10v0.127c0,5.523,4.478,10,10,10c5.522,0,10-4.477,10-10v-0.127
			C88,371.158,83.522,366.681,78,366.681z"/>
	</g>
</g>
</svg>
