<svg id="Capa_1" enable-background="new 0 0 512 512" height="512" viewBox="0 0 512 512" width="512" xmlns="http://www.w3.org/2000/svg"><g><path d="m226 32.543c-93.415 14.464-165 95.99-165 193.457v166l30 30h30l30-30v-91l-30-30 30-30v-15c0-47.49 31.732-87.151 75-100.124l30-41.935z" fill="#ffe1ba"/><path d="m286 32.543-30 55.987 30 37.346c43.268 12.973 75 52.634 75 100.124v15l30 30-30 30v91l30 30h30l30-30v-166c0-97.467-71.585-178.993-165-193.457z" fill="#ffbfab"/><path d="m406 482h45v-90h-90v60z" fill="#5a344b"/><path d="m113.5 482 37.5-30v-60h-90v90z" fill="#704c55"/><path d="m271 0h-15-15c-8.401 0-15 6.599-15 15v110.876c9.565-2.867 19.501-4.876 30-4.876s20.435 2.009 30 4.876v-110.876c0-8.401-6.599-15-15-15z" fill="#9b786f"/><path d="m286 15c0-8.401-6.599-15-15-15h-15v121c10.499 0 20.435 2.009 30 4.876z" fill="#704c55"/><path d="m136 512h-90c-8.284 0-15-6.716-15-15v-30c0-8.284 6.716-15 15-15h105v45c0 8.284-6.716 15-15 15z" fill="#9b786f"/><path d="m466 512h-90c-8.284 0-15-6.716-15-15v-45h105c8.284 0 15 6.716 15 15v30c0 8.284-6.716 15-15 15z" fill="#704c55"/><path d="m466 241h-105v60h105c8.284 0 15-6.716 15-15v-30c0-8.284-6.716-15-15-15z" fill="#704c55"/><path d="m151 301h-105c-8.284 0-15-6.716-15-15v-30c0-8.284 6.716-15 15-15h105z" fill="#9b786f"/></g></svg>